# xmcd
#
# Track frame offsets:
# 150
# 20270
# 50637
# 73052
# 80550
# 101912
# 128927
# 149945
# 179825
# 208547
# 223077
# 240912
# 254420
# 276842
# 303275
#
# Disc length: 4058 seconds
#
#
# Revision: 0
# Processed by: cddbd v1.5.2PL0 Copyright (c) Steve Scherf et al.
# Submitted via: FreeRIP 2.944 
#
DISCID=ef0fd80f
DTITLE=McMurtry-L-Berry4 - Folly-Glory3
DYEAR=2004
DGENRE=Booty Bass
TTITLE0=FG 301
TTITLE1=FG 302
TTITLE2=FG 303
TTITLE3=FG 304
TTITLE4=FG 305
TTITLE5=FG 306
TTITLE6=FG 307
TTITLE7=FG 308
TTITLE8=FG 309
TTITLE9=FG 310
TTITLE10=FG 311
TTITLE11=FG 312
TTITLE12=FG 313
TTITLE13=FG 314
TTITLE14=FG 315
EXTD=Folly and Glory by Larry McMurtry 7 CDs 2004\n4th Berrybender Narrative Simon and Schuster\nread by Alfred Molina - Booty - country
EXTT0=
EXTT1=
EXTT2=
EXTT3=
EXTT4=
EXTT5=
EXTT6=
EXTT7=
EXTT8=
EXTT9=
EXTT10=
EXTT11=
EXTT12=
EXTT13=
EXTT14=
PLAYORDER=
